# xmcd
#
# Track frame offsets:
#	150
#	23113
#	44286
#	65668
#	90313
#	112275
#	141678
#	161335
#	181449
#	203461
#
# Disc length: 3009 seconds
#
# Revision: 1
# Processed by: cddbd v1.5.2PL0 Copyright (c) Steve Scherf et al.
# Submitted via: EZCDAudioConverter 8.0.2.1
#
DISCID=8a0bbf0a
DTITLE=Minh Thư - Mong Vậy Thôi
DYEAR=2005
DGENRE=World Pop
TTITLE0=Mong Vậy Thôi
TTITLE1=Người tình đã xa
TTITLE2=Em không hề khóc
TTITLE3=Tình em mãi trao về anh
TTITLE4=Phép lạ
TTITLE5=Xa anh
TTITLE6=Tình pha lê
TTITLE7=Con tim lẻ loi
TTITLE8=Muộn phiền
TTITLE9=Hãy quên đi buồn đau
EXTD=
EXTT0=
EXTT1=
EXTT2=
EXTT3=
EXTT4=
EXTT5=
EXTT6=
EXTT7=
EXTT8=
EXTT9=
PLAYORDER=
